<svg width="72" height="79" viewBox="0 0 72 79" fill="none" xmlns="http://www.w3.org/2000/svg">
<path d="M0.592 77.928C0.336 77.7573 0.250667 77.544 0.336 77.288C2.896 72.7653 5.072 68.7973 6.864 65.384C4.816 63.4213 3.792 61.2453 3.792 58.856C3.792 54.0773 8.144 49.64 16.848 45.544C24.3573 29.672 27.7707 18.28 27.088 11.368C24.4427 11.9653 22.096 12.4347 20.048 12.776C18.0853 13.1173 16.464 13.288 15.184 13.288C12.624 13.288 10.5333 12.8187 8.912 11.88C7.54667 11.0267 6.864 9.832 6.864 8.296C6.864 7.784 6.992 7.22933 7.248 6.632C7.84533 4.75466 9.12533 3.21866 11.088 2.024C13.0507 0.829329 15.2267 0.231995 17.616 0.231995C22.992 0.231995 26.4907 2.792 28.112 7.912L35.152 6.632L45.392 4.968C47.8667 4.62666 50.128 4.37066 52.176 4.2C54.224 4.02933 56.1013 3.944 57.808 3.944C61.648 3.944 64.6347 4.54133 66.768 5.736C69.328 7.016 70.608 8.89333 70.608 11.368C70.608 14.44 68.4747 17.8533 64.208 21.608C59.344 25.7893 53.2427 29.1173 45.904 31.592H46.8C47.4827 31.5067 48.1227 31.464 48.72 31.464C49.4027 31.464 50.0427 31.464 50.64 31.464C56.528 31.464 61.4773 32.7013 65.488 35.176C69.7547 37.9067 71.888 41.32 71.888 45.416C71.888 49 70.3093 52.6267 67.152 56.296C63.6533 60.648 58.2347 64.3173 50.896 67.304C43.216 70.2907 34.8533 71.784 25.808 71.784C18.2987 71.784 12.2827 69.9067 7.76 66.152L1.232 77.8C1.14667 78.056 0.933333 78.0987 0.592 77.928ZM15.824 9.448C17.0187 9.36266 18.4693 9.23466 20.176 9.064C21.968 8.808 24.0587 8.50933 26.448 8.168C24.912 3.47466 21.9253 1.128 17.488 1.128C13.8187 1.128 11.3013 2.70667 9.936 5.864C9.68 6.20533 9.552 6.58933 9.552 7.016C9.552 8.89333 11.6427 9.704 15.824 9.448ZM24.4 69.992C33.0187 69.992 40.9547 68.456 48.208 65.384C54.6933 62.568 59.6853 59.0267 63.184 54.76C66.0853 51.3467 67.536 48.1467 67.536 45.16C67.536 41.4907 65.488 38.5893 61.392 36.456C57.4667 34.4933 52.8587 33.512 47.568 33.512C44.4107 33.512 41.3387 33.896 38.352 34.664C37.7547 34.7493 37.456 34.536 37.456 34.024C37.456 33.3413 37.84 32.5733 38.608 31.72C39.376 30.7813 40.3147 30.2693 41.424 30.184C41.68 30.0987 41.936 30.056 42.192 30.056C42.448 30.056 42.6613 30.056 42.832 30.056C43.2587 30.056 43.728 30.1413 44.24 30.312C50.0427 28.4347 55.3333 25.1067 60.112 20.328C63.952 16.5733 65.872 13.416 65.872 10.856C65.872 7.61333 62.5013 5.992 55.76 5.992C53.8827 5.992 51.792 6.12 49.488 6.376C47.2693 6.632 44.8373 7.05866 42.192 7.656L28.88 10.856C28.9653 11.2827 29.008 11.752 29.008 12.264C29.008 12.776 29.008 13.288 29.008 13.8C29.008 14.6533 28.9653 15.592 28.88 16.616C28.7947 17.5547 28.6667 18.5787 28.496 19.688C27.8987 22.9307 26.7893 26.6427 25.168 30.824C23.632 35.0053 21.6267 39.6133 19.152 44.648C19.7493 44.4773 20.3467 44.3067 20.944 44.136C21.6267 43.88 22.3093 43.7093 22.992 43.624C25.9787 34.408 31.3973 24.296 39.248 13.288C40.1867 12.0933 41.5093 11.496 43.216 11.496C44.5813 11.496 45.264 11.7947 45.264 12.392C45.264 12.648 45.0933 12.9467 44.752 13.288C42.96 15.08 40.1867 18.92 36.432 24.808C31.9947 31.6347 28.6667 37.736 26.448 43.112C27.8133 42.9413 29.136 42.8133 30.416 42.728C31.7813 42.5573 33.1467 42.472 34.512 42.472C43.8987 42.472 49.616 44.136 51.664 47.464C51.92 47.976 51.792 48.232 51.28 48.232C50.9387 48.232 50.512 48.1467 50 47.976C46.7573 45.8427 41.3387 44.776 33.744 44.776C32.2933 44.776 30.8853 44.8187 29.52 44.904C28.1547 44.9893 26.832 45.1173 25.552 45.288C24.9547 46.824 24.528 48.232 24.272 49.512C24.1013 50.7067 24.016 51.7733 24.016 52.712C24.016 54.504 24.4 55.9973 25.168 57.192C26.1067 58.728 27.3013 59.496 28.752 59.496L29.648 59.368C30.3307 59.1973 30.672 59.4107 30.672 60.008C30.672 60.1787 30.4587 60.3493 30.032 60.52C27.3013 60.6907 25.168 60.008 23.632 58.472C22.1813 56.8507 21.456 54.6747 21.456 51.944C21.456 51.0907 21.4987 50.1947 21.584 49.256C21.7547 48.232 22.0107 47.1653 22.352 46.056C21.4987 46.2267 20.688 46.4827 19.92 46.824C19.152 47.08 18.3413 47.4213 17.488 47.848C16.464 49.896 15.2267 52.2427 13.776 54.888C12.4107 57.448 10.8747 60.3493 9.168 63.592C11.8987 67.8587 16.976 69.992 24.4 69.992ZM8.528 62.312C9.808 59.9227 11.0027 57.6613 12.112 55.528C13.2213 53.3093 14.2453 51.2187 15.184 49.256C10.32 52.328 7.888 55.6987 7.888 59.368C7.888 60.3067 8.10133 61.288 8.528 62.312Z" fill="url(#paint0_linear_5_12)"/>
<defs>
<linearGradient id="paint0_linear_5_12" x1="78" y1="2.5" x2="2" y2="74.5" gradientUnits="userSpaceOnUse">
<stop stop-color="#00A8E8"/>
<stop offset="1" stop-color="#007EA7"/>
</linearGradient>
</defs>
</svg>
